<svg width="45" height="45" viewBox="0 0 45 45" fill="none" xmlns="http://www.w3.org/2000/svg">
<path d="M36.9788 18.8029C36.9788 27.8985 26.8886 37.3712 23.5003 40.2969C23.1846 40.5342 22.8004 40.6626 22.4054 40.6626C22.0105 40.6626 21.6263 40.5342 21.3106 40.2969C17.9223 37.3712 7.83203 27.8985 7.83203 18.8029C7.83203 14.9378 9.36744 11.231 12.1005 8.49794C14.8335 5.7649 18.5403 4.22949 22.4054 4.22949C26.2705 4.22949 29.9773 5.7649 32.7104 8.49794C35.4434 11.231 36.9788 14.9378 36.9788 18.8029Z" stroke="#FF6933" stroke-width="3.64335" stroke-linecap="round" stroke-linejoin="round"/>
<path d="M22.4045 24.267C25.4227 24.267 27.8695 21.8202 27.8695 18.8019C27.8695 15.7837 25.4227 13.3369 22.4045 13.3369C19.3862 13.3369 16.9395 15.7837 16.9395 18.8019C16.9395 21.8202 19.3862 24.267 22.4045 24.267Z" stroke="#FF6933" stroke-width="3.64335" stroke-linecap="round" stroke-linejoin="round"/>
</svg>
