<svg width="43" height="43" viewBox="0 0 43 43" fill="none" xmlns="http://www.w3.org/2000/svg">
<path d="M28.6042 37.3597V33.8752C28.6042 32.0269 27.87 30.2543 26.5631 28.9474C25.2561 27.6405 23.4836 26.9063 21.6353 26.9062H11.1818C9.33356 26.9063 7.56098 27.6405 6.25405 28.9474C4.94712 30.2543 4.21289 32.0269 4.21289 33.8752V37.3597" stroke="#FF6933" stroke-width="3.48448" stroke-linecap="round" stroke-linejoin="round"/>
<path d="M16.4084 19.9369C20.2573 19.9369 23.3774 16.8168 23.3774 12.968C23.3774 9.11913 20.2573 5.99902 16.4084 5.99902C12.5596 5.99902 9.43945 9.11913 9.43945 12.968C9.43945 16.8168 12.5596 19.9369 16.4084 19.9369Z" stroke="#FF6933" stroke-width="3.48448" stroke-linecap="round" stroke-linejoin="round"/>
<path d="M39.0568 37.3598V33.8753C39.0556 32.3312 38.5417 30.8312 37.5957 29.6108C36.6497 28.3905 35.3251 27.5188 33.8301 27.1328" stroke="#FF6933" stroke-width="3.48448" stroke-linecap="round" stroke-linejoin="round"/>
<path d="M28.6035 6.22559C30.1026 6.6094 31.4312 7.48122 32.3801 8.70359C33.3289 9.92596 33.8439 11.4294 33.8439 12.9768C33.8439 14.5242 33.3289 16.0276 32.3801 17.2499C31.4312 18.4723 30.1026 19.3441 28.6035 19.7279" stroke="#FF6933" stroke-width="3.48448" stroke-linecap="round" stroke-linejoin="round"/>
</svg>
