<svg width="44" height="45" viewBox="0 0 44 45" fill="none" xmlns="http://www.w3.org/2000/svg">
<path d="M22.1549 40.5608C32.1007 40.5608 40.1633 32.4981 40.1633 22.5524C40.1633 12.6066 32.1007 4.54395 22.1549 4.54395C12.2091 4.54395 4.14648 12.6066 4.14648 22.5524C4.14648 32.4981 12.2091 40.5608 22.1549 40.5608Z" stroke="#FF6933" stroke-width="3.60168" stroke-linecap="round" stroke-linejoin="round"/>
<path d="M22.1547 33.3572C28.1221 33.3572 32.9597 28.5196 32.9597 22.5521C32.9597 16.5847 28.1221 11.7471 22.1547 11.7471C16.1872 11.7471 11.3496 16.5847 11.3496 22.5521C11.3496 28.5196 16.1872 33.3572 22.1547 33.3572Z" stroke="#FF6933" stroke-width="3.60168" stroke-linecap="round" stroke-linejoin="round"/>
<path d="M22.1544 26.1536C24.1436 26.1536 25.7561 24.541 25.7561 22.5519C25.7561 20.5627 24.1436 18.9502 22.1544 18.9502C20.1653 18.9502 18.5527 20.5627 18.5527 22.5519C18.5527 24.541 20.1653 26.1536 22.1544 26.1536Z" stroke="#FF6933" stroke-width="3.60168" stroke-linecap="round" stroke-linejoin="round"/>
</svg>
