<svg width="80" height="74" viewBox="0 0 80 74" fill="none" xmlns="http://www.w3.org/2000/svg">
<rect width="80" height="74" rx="8" fill="white"/>
<g transform="translate(5, 5)">
<path d="M57.8213 17.1922C57.8249 17.1581 57.8288 17.1238 57.8324 17.0897L69.2261 28.7781C69.2106 28.7908 69.1956 28.805 69.1778 28.8166L58.47 36.4598L57.2393 36.7L46.8688 23.1183L37.5356 31.3387L58.2146 56.4631L12.4457 62.853L29.0275 50.3507L38.7779 50.0787L27.0739 38.5231L0.000432577 62.6941C0.0766399 62.514 0.254272 42.81 0.254272 42.81C11.8511 32.9501 24.1471 23.4279 35.2241 12.9561C35.3325 12.854 35.4563 12.7809 35.6093 12.7725C35.6375 12.6412 35.5928 12.5568 35.5261 12.4814L0.919996 17.5908L10.23 1.93009L10.9999 1.90574L40.8522 0.511294L57.8213 17.1922Z" fill="#F25E18"/>
</g>
</svg>
